<?xml version='1.0' encoding='ascii'?>
<svg xmlns="http://www.w3.org/2000/svg" height="540" version="1.1" width="960">
    <g id="RenderLayer_LineSet" inkscape:groupmode="lineset" inkscape:label="RenderLayer_LineSet" xmlns:inkscape="http://www.inkscape.org/namespaces/inkscape">
        <g id="strokes" inkscape:groupmode="layer" inkscape:label="strokes" xmlns:inkscape="http://www.inkscape.org/namespaces/inkscape">
            <path d=" M 416.800, 480.785 426.493, 478.325 436.185, 475.866 445.878, 473.406 455.571, 470.946 465.264, 468.487 474.957, 466.027 484.650, 463.568 494.342, 461.108 504.035, 458.648 513.728, 456.189 523.421, 453.729 533.114, 451.270 542.806, 448.810 552.499, 446.351 562.192, 443.891 571.885, 441.431 573.666, 440.979 574.196, 430.993 574.725, 421.007 575.254, 411.021 575.784, 401.035 576.313, 391.049 576.843, 381.063 577.372, 371.077 577.902, 361.091 578.431, 351.105 578.960, 341.120 579.490, 331.134 580.019, 321.148 580.549, 311.162 581.078, 301.176 581.262, 297.714 574.320, 290.516 567.379, 283.317 560.437, 276.119 553.496, 268.921 546.554, 261.722 539.613, 254.524 532.671, 247.326 525.730, 240.127 518.788, 232.929 511.847, 225.731 511.025, 224.879 501.176, 226.611 491.327, 228.343 481.478, 230.074 471.630, 231.806 461.781, 233.538 451.932, 235.270 442.083, 237.002 432.234, 238.734 422.385, 240.465 412.536, 242.197 402.687, 243.929 392.838, 245.661 382.990, 247.393 373.141, 249.125 363.292, 250.857 359.367, 251.547 359.982, 261.528 360.597, 271.509 361.212, 281.490 361.827, 291.471 362.442, 301.452 363.057, 311.433 363.672, 321.414 364.288, 331.395 364.903, 341.376 365.518, 351.357 366.133, 361.339 366.748, 371.320 367.363, 381.301 367.758, 387.709 372.420, 396.556 377.081, 405.403 381.743, 414.250 386.404, 423.097 391.066, 431.944 395.727, 440.791 400.389, 449.638 405.050, 458.485 409.712, 467.332 414.373, 476.179 416.800, 480.785 " fill="none" stroke="rgb(0, 0, 0)" stroke-linecap="butt" stroke-linejoin="round" stroke-opacity="1.0" stroke-width="3.0" />
            <path d=" M 359.367, 251.547 364.769, 259.962 370.172, 268.377 375.574, 276.792 380.977, 285.207 386.379, 293.622 391.782, 302.037 397.184, 310.452 402.587, 318.867 407.990, 327.282 411.381, 332.564 " fill="none" stroke="rgb(0, 0, 0)" stroke-linecap="butt" stroke-linejoin="round" stroke-opacity="1.0" stroke-width="3.0" />
            <path d=" M 416.800, 480.785 416.435, 470.791 416.069, 460.798 415.704, 450.805 415.338, 440.812 414.973, 430.818 414.608, 420.825 414.242, 410.832 413.877, 400.838 413.511, 390.845 413.146, 380.852 412.781, 370.858 412.415, 360.865 412.050, 350.872 411.685, 340.878 411.381, 332.564 421.177, 330.554 430.973, 328.544 440.769, 326.535 450.565, 324.525 460.361, 322.516 470.157, 320.506 479.953, 318.497 489.749, 316.487 499.545, 314.477 509.341, 312.468 519.137, 310.458 528.933, 308.449 538.729, 306.439 548.525, 304.430 558.321, 302.420 568.117, 300.411 577.913, 298.401 581.262, 297.714 " fill="none" stroke="rgb(0, 0, 0)" stroke-linecap="butt" stroke-linejoin="round" stroke-opacity="1.0" stroke-width="3.0" />
        </g>
    </g>
</svg>
