<?xml version='1.0' encoding='ascii'?>
<svg xmlns="http://www.w3.org/2000/svg" height="540" version="1.1" width="960">
    <g id="RenderLayer_LineSet" inkscape:groupmode="lineset" inkscape:label="RenderLayer_LineSet" xmlns:inkscape="http://www.inkscape.org/namespaces/inkscape">
        <g id="strokes" inkscape:groupmode="layer" inkscape:label="strokes" xmlns:inkscape="http://www.inkscape.org/namespaces/inkscape">
            <path d=" M 415.586, 480.832 425.279, 478.373 434.972, 475.914 444.665, 473.455 454.358, 470.997 464.051, 468.538 473.744, 466.079 483.437, 463.620 493.130, 461.161 502.823, 458.703 512.516, 456.244 522.209, 453.785 531.902, 451.326 541.595, 448.867 551.288, 446.408 560.981, 443.950 570.674, 441.491 576.086, 440.118 576.629, 430.133 577.172, 420.147 577.715, 410.162 578.258, 400.177 578.800, 390.192 579.343, 380.206 579.886, 370.221 580.429, 360.236 580.971, 350.251 581.514, 340.265 582.057, 330.280 582.600, 320.295 583.143, 310.309 583.685, 300.324 584.070, 293.249 577.084, 286.094 570.098, 278.939 563.112, 271.783 556.126, 264.628 549.141, 257.473 542.155, 250.318 535.169, 243.163 528.183, 236.007 521.197, 228.852 514.211, 221.697 511.968, 219.399 502.116, 221.114 492.264, 222.829 482.412, 224.544 472.560, 226.258 462.708, 227.973 452.856, 229.688 443.005, 231.403 433.153, 233.118 423.301, 234.832 413.449, 236.547 403.597, 238.262 393.745, 239.977 383.893, 241.692 374.041, 243.406 364.189, 245.121 356.915, 246.387 357.541, 256.368 358.167, 266.348 358.793, 276.328 359.419, 286.309 360.045, 296.289 360.671, 306.270 361.297, 316.250 361.923, 326.230 362.549, 336.211 363.175, 346.191 363.801, 356.172 364.426, 366.152 365.052, 376.132 365.658, 385.787 370.308, 394.640 374.959, 403.493 379.609, 412.346 384.260, 421.198 388.910, 430.051 393.561, 438.904 398.211, 447.757 402.862, 456.610 407.512, 465.463 412.163, 474.316 415.586, 480.832 " fill="none" stroke="rgb(0, 0, 0)" stroke-linecap="butt" stroke-linejoin="round" stroke-opacity="1.0" stroke-width="3.0" />
            <path d=" M 356.915, 246.387 362.327, 254.796 367.739, 263.205 373.151, 271.614 378.563, 280.023 383.975, 288.432 389.387, 296.841 394.799, 305.250 400.211, 313.659 405.623, 322.068 409.918, 328.742 " fill="none" stroke="rgb(0, 0, 0)" stroke-linecap="butt" stroke-linejoin="round" stroke-opacity="1.0" stroke-width="3.0" />
            <path d=" M 415.586, 480.832 415.214, 470.839 414.841, 460.846 414.469, 450.853 414.096, 440.860 413.724, 430.867 413.352, 420.874 412.979, 410.880 412.607, 400.887 412.234, 390.894 411.862, 380.901 411.490, 370.908 411.117, 360.915 410.745, 350.922 410.372, 340.929 410.000, 330.936 409.918, 328.742 419.717, 326.745 429.515, 324.748 439.314, 322.751 449.112, 320.754 458.911, 318.757 468.710, 316.760 478.508, 314.763 488.307, 312.766 498.105, 310.769 507.904, 308.772 517.702, 306.775 527.501, 304.778 537.300, 302.781 547.098, 300.784 556.897, 298.787 566.695, 296.790 576.494, 294.793 584.070, 293.249 " fill="none" stroke="rgb(0, 0, 0)" stroke-linecap="butt" stroke-linejoin="round" stroke-opacity="1.0" stroke-width="3.0" />
        </g>
    </g>
</svg>
