<?xml version='1.0' encoding='ascii'?>
<svg xmlns="http://www.w3.org/2000/svg" height="540" version="1.1" width="960">
    <g id="RenderLayer_LineSet" inkscape:groupmode="lineset" inkscape:label="RenderLayer_LineSet" xmlns:inkscape="http://www.inkscape.org/namespaces/inkscape">
        <g id="strokes" inkscape:groupmode="layer" inkscape:label="strokes" xmlns:inkscape="http://www.inkscape.org/namespaces/inkscape">
            <path d=" M 411.902, 480.975 421.595, 478.518 431.289, 476.062 440.982, 473.605 450.676, 471.149 460.370, 468.692 470.063, 466.236 479.757, 463.779 489.450, 461.323 499.144, 458.867 508.837, 456.410 518.531, 453.954 528.225, 451.497 537.918, 449.041 547.612, 446.584 557.305, 444.128 566.999, 441.671 576.693, 439.215 583.396, 437.516 583.979, 427.533 584.562, 417.550 585.145, 407.567 585.728, 397.584 586.311, 387.601 586.894, 377.618 587.477, 367.635 588.060, 357.652 588.643, 347.669 589.226, 337.686 589.809, 327.703 590.393, 317.720 590.976, 307.737 591.559, 297.754 592.142, 287.771 592.615, 279.663 585.495, 272.642 578.375, 265.620 571.255, 258.599 564.135, 251.577 557.014, 244.555 549.894, 237.534 542.774, 230.512 535.654, 223.491 528.534, 216.469 521.413, 209.447 514.801, 202.927 504.940, 204.590 495.080, 206.253 485.219, 207.917 475.358, 209.580 465.498, 211.243 455.637, 212.907 445.776, 214.570 435.915, 216.233 426.055, 217.897 416.194, 219.560 406.333, 221.223 396.473, 222.887 386.612, 224.550 376.751, 226.213 366.891, 227.877 357.030, 229.540 349.514, 230.808 350.172, 240.786 350.830, 250.765 351.488, 260.743 352.146, 270.721 352.805, 280.699 353.463, 290.678 354.121, 300.656 354.779, 310.634 355.438, 320.613 356.096, 330.591 356.754, 340.569 357.412, 350.548 358.070, 360.526 358.729, 370.504 359.357, 380.022 363.973, 388.892 368.590, 397.763 373.207, 406.633 377.824, 415.503 382.441, 424.374 387.058, 433.244 391.675, 442.114 396.292, 450.985 400.909, 459.855 405.526, 468.726 410.143, 477.596 411.902, 480.975 " fill="none" stroke="rgb(0, 0, 0)" stroke-linecap="butt" stroke-linejoin="round" stroke-opacity="1.0" stroke-width="3.0" />
            <path d=" M 349.514, 230.808 354.955, 239.198 360.396, 247.588 365.838, 255.978 371.279, 264.368 376.720, 272.758 382.162, 281.148 387.603, 289.538 393.044, 297.928 398.486, 306.318 403.927, 314.708 405.442, 317.044 " fill="none" stroke="rgb(0, 0, 0)" stroke-linecap="butt" stroke-linejoin="round" stroke-opacity="1.0" stroke-width="3.0" />
            <path d=" M 411.902, 480.975 411.508, 470.983 411.114, 460.990 410.720, 450.998 410.327, 441.006 409.933, 431.014 409.539, 421.021 409.146, 411.029 408.752, 401.037 408.358, 391.045 407.964, 381.052 407.571, 371.060 407.177, 361.068 406.783, 351.076 406.389, 341.083 405.996, 331.091 405.602, 321.099 405.442, 317.044 415.249, 315.086 425.055, 313.127 434.861, 311.169 444.668, 309.210 454.474, 307.252 464.280, 305.293 474.087, 303.335 483.893, 301.377 493.699, 299.418 503.506, 297.460 513.312, 295.501 523.118, 293.543 532.925, 291.584 542.731, 289.626 552.537, 287.667 562.344, 285.709 572.150, 283.750 581.957, 281.792 592.615, 279.663 " fill="none" stroke="rgb(0, 0, 0)" stroke-linecap="butt" stroke-linejoin="round" stroke-opacity="1.0" stroke-width="3.0" />
        </g>
    </g>
</svg>
