<?xml version='1.0' encoding='ascii'?>
<svg xmlns="http://www.w3.org/2000/svg" height="540" version="1.1" width="960">
    <g id="RenderLayer_LineSet" inkscape:groupmode="lineset" inkscape:label="RenderLayer_LineSet" xmlns:inkscape="http://www.inkscape.org/namespaces/inkscape">
        <g id="strokes" inkscape:groupmode="layer" inkscape:label="strokes" xmlns:inkscape="http://www.inkscape.org/namespaces/inkscape">
            <path d=" M 405.849, 481.210 415.544, 478.757 425.239, 476.304 434.933, 473.852 444.628, 471.399 454.322, 468.946 464.017, 466.494 473.711, 464.041 483.406, 461.588 493.100, 459.136 502.795, 456.683 512.490, 454.231 522.184, 451.778 531.879, 449.325 541.573, 446.873 551.268, 444.420 560.962, 441.967 570.657, 439.515 580.352, 437.062 590.046, 434.609 595.285, 433.284 595.933, 423.305 596.582, 413.326 597.230, 403.347 597.878, 393.368 598.527, 383.389 599.175, 373.410 599.823, 363.431 600.472, 353.452 601.120, 343.473 601.768, 333.494 602.416, 323.515 603.065, 313.536 603.713, 303.558 604.361, 293.579 605.010, 283.600 605.658, 273.621 606.306, 263.642 606.722, 257.235 599.384, 250.442 592.045, 243.649 584.707, 236.856 577.368, 230.063 570.029, 223.270 562.691, 216.477 555.352, 209.684 548.014, 202.891 540.675, 196.098 533.336, 189.305 525.998, 182.512 519.368, 176.375 509.494, 177.955 499.619, 179.535 489.745, 181.115 479.870, 182.695 469.996, 184.275 460.122, 185.855 450.247, 187.435 440.373, 189.015 430.498, 190.595 420.624, 192.175 410.750, 193.755 400.875, 195.334 391.001, 196.914 381.126, 198.494 371.252, 200.074 361.378, 201.654 351.503, 203.234 341.629, 204.814 337.479, 205.478 338.189, 215.453 338.899, 225.427 339.608, 235.402 340.318, 245.377 341.027, 255.352 341.737, 265.327 342.447, 275.301 343.156, 285.276 343.866, 295.251 344.575, 305.226 345.285, 315.201 345.995, 325.175 346.704, 335.150 347.414, 345.125 348.123, 355.100 348.833, 365.075 349.238, 370.764 353.799, 379.663 358.361, 388.562 362.922, 397.461 367.483, 406.360 372.045, 415.259 376.606, 424.158 381.168, 433.057 385.729, 441.956 390.291, 450.855 394.852, 459.754 399.413, 468.653 403.975, 477.553 405.849, 481.210 " fill="none" stroke="rgb(0, 0, 0)" stroke-linecap="butt" stroke-linejoin="round" stroke-opacity="1.0" stroke-width="3.0" />
            <path d=" M 337.479, 205.478 342.972, 213.834 348.464, 222.191 353.957, 230.548 359.449, 238.904 364.942, 247.261 370.434, 255.617 375.927, 263.974 381.419, 272.331 386.912, 280.687 392.404, 289.044 397.966, 297.506 " fill="none" stroke="rgb(0, 0, 0)" stroke-linecap="butt" stroke-linejoin="round" stroke-opacity="1.0" stroke-width="3.0" />
            <path d=" M 405.849, 481.210 405.421, 471.219 404.992, 461.228 404.563, 451.237 404.134, 441.246 403.706, 431.256 403.277, 421.265 402.848, 411.274 402.420, 401.283 401.991, 391.292 401.562, 381.302 401.133, 371.311 400.705, 361.320 400.276, 351.329 399.847, 341.338 399.419, 331.347 398.990, 321.357 398.561, 311.366 398.132, 301.375 397.966, 297.506 407.785, 295.612 417.604, 293.718 427.423, 291.824 437.242, 289.929 447.061, 288.035 456.880, 286.141 466.699, 284.247 476.518, 282.353 486.337, 280.459 496.156, 278.564 505.975, 276.670 515.794, 274.776 525.613, 272.882 535.432, 270.988 545.251, 269.094 555.070, 267.199 564.889, 265.305 574.708, 263.411 584.527, 261.517 594.346, 259.623 604.165, 257.729 606.722, 257.235 " fill="none" stroke="rgb(0, 0, 0)" stroke-linecap="butt" stroke-linejoin="round" stroke-opacity="1.0" stroke-width="3.0" />
        </g>
    </g>
</svg>
