<?xml version='1.0' encoding='ascii'?>
<svg xmlns="http://www.w3.org/2000/svg" height="540" version="1.1" width="960">
    <g id="RenderLayer_LineSet" inkscape:groupmode="lineset" inkscape:label="RenderLayer_LineSet" xmlns:inkscape="http://www.inkscape.org/namespaces/inkscape">
        <g id="strokes" inkscape:groupmode="layer" inkscape:label="strokes" xmlns:inkscape="http://www.inkscape.org/namespaces/inkscape">
            <path d=" M 397.898, 481.518 407.593, 479.070 417.289, 476.623 426.985, 474.175 436.681, 471.728 446.377, 469.280 456.073, 466.832 465.768, 464.385 475.464, 461.937 485.160, 459.490 494.856, 457.042 504.552, 454.594 514.248, 452.147 523.943, 449.699 533.639, 447.251 543.335, 444.804 553.031, 442.356 562.727, 439.909 572.423, 437.461 582.118, 435.013 591.814, 432.566 601.510, 430.118 610.690, 427.801 611.422, 417.828 612.154, 407.854 612.886, 397.881 613.619, 387.908 614.351, 377.935 615.083, 367.962 615.815, 357.989 616.547, 348.016 617.280, 338.042 618.012, 328.069 618.744, 318.096 619.476, 308.123 620.208, 298.150 620.941, 288.177 621.673, 278.203 622.405, 268.230 623.137, 258.257 623.870, 248.284 624.602, 238.311 625.391, 227.554 617.771, 221.079 610.151, 214.603 602.531, 208.127 594.911, 201.651 587.291, 195.176 579.671, 188.700 572.051, 182.224 564.431, 175.749 556.811, 169.273 549.191, 162.797 541.571, 156.321 533.951, 149.846 526.331, 143.370 525.209, 142.417 515.318, 143.889 505.427, 145.361 495.536, 146.834 485.645, 148.306 475.754, 149.778 465.863, 151.251 455.972, 152.723 446.081, 154.195 436.190, 155.668 426.299, 157.140 416.408, 158.613 406.517, 160.085 396.626, 161.557 386.735, 163.030 376.844, 164.502 366.953, 165.974 357.062, 167.447 347.171, 168.919 337.280, 170.391 327.389, 171.864 321.898, 172.681 322.672, 182.651 323.446, 192.621 324.220, 202.591 324.994, 212.561 325.769, 222.531 326.543, 232.501 327.317, 242.471 328.091, 252.441 328.865, 262.411 329.639, 272.381 330.413, 282.351 331.188, 292.321 331.962, 302.291 332.736, 312.261 333.510, 322.231 334.284, 332.201 335.058, 342.171 335.832, 352.141 336.364, 358.985 340.852, 367.921 345.339, 376.858 349.827, 385.794 354.315, 394.731 358.802, 403.667 363.290, 412.604 367.778, 421.540 372.266, 430.477 376.753, 439.413 381.241, 448.350 385.729, 457.286 390.216, 466.222 394.704, 475.159 397.898, 481.518 " fill="none" stroke="rgb(0, 0, 0)" stroke-linecap="butt" stroke-linejoin="round" stroke-opacity="1.0" stroke-width="3.0" />
            <path d=" M 321.898, 172.681 327.464, 180.989 333.029, 189.297 338.595, 197.605 344.161, 205.913 349.727, 214.221 355.293, 222.529 360.858, 230.837 366.424, 239.145 371.990, 247.453 377.556, 255.760 383.122, 264.068 387.903, 271.205 " fill="none" stroke="rgb(0, 0, 0)" stroke-linecap="butt" stroke-linejoin="round" stroke-opacity="1.0" stroke-width="3.0" />
            <path d=" M 397.898, 481.518 397.423, 471.529 396.948, 461.541 396.473, 451.552 395.999, 441.563 395.524, 431.574 395.049, 421.586 394.575, 411.597 394.100, 401.608 393.625, 391.620 393.151, 381.631 392.676, 371.642 392.201, 361.653 391.726, 351.665 391.252, 341.676 390.777, 331.687 390.302, 321.698 389.828, 311.710 389.353, 301.721 388.878, 291.732 388.403, 281.744 387.903, 271.205 397.738, 269.397 407.573, 267.589 417.408, 265.782 427.244, 263.974 437.079, 262.166 446.914, 260.358 456.749, 258.551 466.585, 256.743 476.420, 254.935 486.255, 253.128 496.090, 251.320 505.926, 249.512 515.761, 247.704 525.596, 245.897 535.431, 244.089 545.267, 242.281 555.102, 240.474 564.937, 238.666 574.772, 236.858 584.608, 235.050 594.443, 233.243 604.278, 231.435 614.113, 229.627 625.391, 227.554 " fill="none" stroke="rgb(0, 0, 0)" stroke-linecap="butt" stroke-linejoin="round" stroke-opacity="1.0" stroke-width="3.0" />
        </g>
    </g>
</svg>
