<?xml version='1.0' encoding='ascii'?>
<svg xmlns="http://www.w3.org/2000/svg" height="540" version="1.1" width="960">
    <g id="RenderLayer_LineSet" inkscape:groupmode="lineset" inkscape:label="RenderLayer_LineSet" xmlns:inkscape="http://www.inkscape.org/namespaces/inkscape">
        <g id="strokes" inkscape:groupmode="layer" inkscape:label="strokes" xmlns:inkscape="http://www.inkscape.org/namespaces/inkscape">
            <path d=" M 388.984, 481.864 398.681, 479.422 408.379, 476.980 418.076, 474.538 427.773, 472.096 437.470, 469.654 447.168, 467.212 456.865, 464.770 466.562, 462.328 476.259, 459.886 485.957, 457.444 495.654, 455.002 505.351, 452.560 515.048, 450.118 524.745, 447.676 534.443, 445.234 544.140, 442.792 553.837, 440.350 563.534, 437.908 573.232, 435.466 582.929, 433.024 592.626, 430.582 602.323, 428.140 612.021, 425.698 621.718, 423.255 627.671, 421.756 628.495, 411.790 629.319, 401.824 630.143, 391.858 630.967, 381.892 631.791, 371.926 632.615, 361.960 633.439, 351.994 634.263, 342.028 635.087, 332.062 635.911, 322.096 636.735, 312.130 637.558, 302.164 638.382, 292.198 639.206, 282.232 640.030, 272.266 640.854, 262.300 641.678, 252.334 642.502, 242.368 643.326, 232.402 644.150, 222.436 644.974, 212.470 645.798, 202.504 646.501, 193.993 638.576, 187.895 630.650, 181.797 622.725, 175.699 614.799, 169.601 606.874, 163.503 598.948, 157.405 591.023, 151.307 583.097, 145.208 575.172, 139.110 567.246, 133.012 559.321, 126.914 551.395, 120.816 543.469, 114.718 535.544, 108.620 531.551, 105.548 521.643, 106.902 511.735, 108.257 501.827, 109.611 491.919, 110.966 482.012, 112.320 472.104, 113.675 462.196, 115.029 452.288, 116.384 442.380, 117.738 432.472, 119.093 422.565, 120.447 412.657, 121.802 402.749, 123.156 392.841, 124.511 382.933, 125.865 373.025, 127.220 363.118, 128.574 353.210, 129.929 343.302, 131.283 333.394, 132.638 323.486, 133.992 313.578, 135.347 304.735, 136.556 305.578, 146.520 306.421, 156.485 307.263, 166.449 308.106, 176.414 308.949, 186.378 309.792, 196.342 310.634, 206.307 311.477, 216.271 312.320, 226.236 313.163, 236.200 314.005, 246.165 314.848, 256.129 315.691, 266.093 316.534, 276.058 317.376, 286.022 318.219, 295.987 319.062, 305.951 319.905, 315.915 320.747, 325.880 321.590, 335.844 322.472, 346.275 326.877, 355.253 331.281, 364.231 335.685, 373.209 340.089, 382.187 344.493, 391.165 348.897, 400.143 353.301, 409.121 357.705, 418.099 362.109, 427.077 366.513, 436.055 370.917, 445.033 375.321, 454.011 379.725, 462.989 384.129, 471.967 388.984, 481.864 " fill="none" stroke="rgb(0, 0, 0)" stroke-linecap="butt" stroke-linejoin="round" stroke-opacity="1.0" stroke-width="3.0" />
            <path d=" M 304.735, 136.556 310.392, 144.802 316.050, 153.047 321.707, 161.293 327.365, 169.539 333.022, 177.785 338.680, 186.031 344.337, 194.276 349.995, 202.522 355.652, 210.768 361.310, 219.014 366.967, 227.259 372.625, 235.505 376.283, 240.837 " fill="none" stroke="rgb(0, 0, 0)" stroke-linecap="butt" stroke-linejoin="round" stroke-opacity="1.0" stroke-width="3.0" />
            <path d=" M 388.984, 481.864 388.458, 471.878 387.932, 461.892 387.405, 451.905 386.879, 441.919 386.353, 431.933 385.827, 421.947 385.300, 411.961 384.774, 401.975 384.248, 391.989 383.722, 382.002 383.196, 372.016 382.669, 362.030 382.143, 352.044 381.617, 342.058 381.091, 332.072 380.564, 322.086 380.038, 312.099 379.512, 302.113 378.986, 292.127 378.459, 282.141 377.933, 272.155 377.407, 262.169 376.881, 252.182 376.283, 240.837 386.136, 239.129 395.989, 237.421 405.842, 235.713 415.695, 234.005 425.548, 232.296 435.401, 230.588 445.254, 228.880 455.107, 227.172 464.960, 225.464 474.813, 223.756 484.666, 222.048 494.519, 220.340 504.372, 218.632 514.225, 216.924 524.078, 215.216 533.932, 213.507 543.785, 211.799 553.638, 210.091 563.491, 208.383 573.344, 206.675 583.197, 204.967 593.050, 203.259 602.903, 201.551 612.756, 199.843 622.609, 198.135 632.462, 196.427 642.315, 194.718 646.501, 193.993 " fill="none" stroke="rgb(0, 0, 0)" stroke-linecap="butt" stroke-linejoin="round" stroke-opacity="1.0" stroke-width="3.0" />
        </g>
    </g>
</svg>
