<?xml version='1.0' encoding='ascii'?>
<svg xmlns="http://www.w3.org/2000/svg" height="540" version="1.1" width="960">
    <g id="RenderLayer_LineSet" inkscape:groupmode="lineset" inkscape:label="RenderLayer_LineSet" xmlns:inkscape="http://www.inkscape.org/namespaces/inkscape">
        <g id="strokes" inkscape:groupmode="layer" inkscape:label="strokes" xmlns:inkscape="http://www.inkscape.org/namespaces/inkscape">
            <path d=" M 380.394, 482.197 390.093, 479.760 399.791, 477.324 409.490, 474.887 419.189, 472.450 428.887, 470.014 438.586, 467.577 448.284, 465.141 457.983, 462.704 467.682, 460.267 477.380, 457.831 487.079, 455.394 496.777, 452.957 506.476, 450.521 516.175, 448.084 525.873, 445.647 535.572, 443.211 545.270, 440.774 554.969, 438.337 564.668, 435.901 574.366, 433.464 584.065, 431.028 593.763, 428.591 603.462, 426.154 613.161, 423.718 622.859, 421.281 632.558, 418.844 643.757, 416.031 644.667, 406.072 645.577, 396.114 646.487, 386.155 647.397, 376.197 648.307, 366.238 649.217, 356.280 650.128, 346.321 651.038, 336.363 651.948, 326.404 652.858, 316.446 653.768, 306.487 654.678, 296.529 655.588, 286.570 656.498, 276.612 657.408, 266.653 658.318, 256.695 659.228, 246.736 660.138, 236.778 661.048, 226.819 661.958, 216.861 662.868, 206.902 663.778, 196.944 664.688, 186.985 665.598, 177.026 666.508, 167.068 667.031, 161.355 658.823, 155.641 650.616, 149.928 642.409, 144.215 634.202, 138.501 625.995, 132.788 617.787, 127.075 609.580, 121.361 601.373, 115.648 593.166, 109.935 584.959, 104.221 576.752, 98.508 568.544, 92.795 560.337, 87.081 552.130, 81.368 543.923, 75.655 537.466, 71.160 527.544, 72.403 517.621, 73.647 507.699, 74.890 497.776, 76.134 487.854, 77.377 477.932, 78.621 468.009, 79.865 458.087, 81.108 448.165, 82.352 438.242, 83.595 428.320, 84.839 418.397, 86.083 408.475, 87.326 398.553, 88.570 388.630, 89.813 378.708, 91.057 368.786, 92.300 358.863, 93.544 348.941, 94.788 339.018, 96.031 329.096, 97.275 319.174, 98.518 309.251, 99.762 299.329, 101.005 288.491, 102.364 289.396, 112.323 290.301, 122.282 291.207, 132.241 292.112, 142.200 293.018, 152.159 293.923, 162.117 294.829, 172.076 295.734, 182.035 296.639, 191.994 297.545, 201.953 298.450, 211.912 299.356, 221.871 300.261, 231.830 301.167, 241.789 302.072, 251.748 302.978, 261.707 303.883, 271.666 304.788, 281.625 305.694, 291.583 306.599, 301.542 307.505, 311.501 308.410, 321.460 309.316, 331.419 309.595, 334.493 313.918, 343.511 318.240, 352.528 322.562, 361.546 326.885, 370.564 331.207, 379.581 335.530, 388.599 339.852, 397.616 344.174, 406.634 348.497, 415.652 352.819, 424.669 357.142, 433.687 361.464, 442.704 365.787, 451.722 370.109, 460.739 374.431, 469.757 378.754, 478.775 380.394, 482.197 " fill="none" stroke="rgb(0, 0, 0)" stroke-linecap="butt" stroke-linejoin="round" stroke-opacity="1.0" stroke-width="3.0" />
            <path d=" M 288.491, 102.364 294.248, 110.540 300.005, 118.717 305.762, 126.894 311.519, 135.070 317.276, 143.247 323.033, 151.423 328.790, 159.600 334.547, 167.776 340.304, 175.953 346.061, 184.130 351.818, 192.306 357.575, 200.483 363.332, 208.659 364.730, 210.645 " fill="none" stroke="rgb(0, 0, 0)" stroke-linecap="butt" stroke-linejoin="round" stroke-opacity="1.0" stroke-width="3.0" />
            <path d=" M 380.394, 482.197 379.818, 472.214 379.243, 462.230 378.667, 452.247 378.091, 442.263 377.515, 432.280 376.939, 422.297 376.363, 412.313 375.787, 402.330 375.211, 392.346 374.636, 382.363 374.060, 372.380 373.484, 362.396 372.908, 352.413 372.332, 342.429 371.756, 332.446 371.180, 322.463 370.604, 312.479 370.029, 302.496 369.453, 292.512 368.877, 282.529 368.301, 272.546 367.725, 262.562 367.149, 252.579 366.573, 242.595 365.997, 232.612 365.422, 222.629 364.730, 210.645 374.600, 209.036 384.470, 207.427 394.339, 205.817 404.209, 204.208 414.079, 202.599 423.948, 200.989 433.818, 199.380 443.688, 197.771 453.557, 196.162 463.427, 194.552 473.297, 192.943 483.166, 191.334 493.036, 189.725 502.906, 188.115 512.775, 186.506 522.645, 184.897 532.515, 183.288 542.384, 181.678 552.254, 180.069 562.124, 178.460 571.993, 176.851 581.863, 175.241 591.733, 173.632 601.602, 172.023 611.472, 170.414 621.342, 168.804 631.211, 167.195 641.081, 165.586 650.951, 163.977 660.820, 162.367 667.031, 161.355 " fill="none" stroke="rgb(0, 0, 0)" stroke-linecap="butt" stroke-linejoin="round" stroke-opacity="1.0" stroke-width="3.0" />
        </g>
    </g>
</svg>
