<?xml version='1.0' encoding='ascii'?>
<svg xmlns="http://www.w3.org/2000/svg" height="540" version="1.1" width="960">
    <g id="RenderLayer_LineSet" inkscape:groupmode="lineset" inkscape:label="RenderLayer_LineSet" xmlns:inkscape="http://www.inkscape.org/namespaces/inkscape">
        <g id="strokes" inkscape:groupmode="layer" inkscape:label="strokes" xmlns:inkscape="http://www.inkscape.org/namespaces/inkscape">
            <path d=" M 373.408, 482.468 383.108, 480.036 392.807, 477.603 402.507, 475.171 412.207, 472.739 421.906, 470.307 431.606, 467.874 441.306, 465.442 451.006, 463.010 460.705, 460.577 470.405, 458.145 480.105, 455.713 489.804, 453.280 499.504, 450.848 509.204, 448.416 518.903, 445.984 528.603, 443.551 538.303, 441.119 548.002, 438.687 557.702, 436.254 567.402, 433.822 577.102, 431.390 586.801, 428.957 596.501, 426.525 606.201, 424.093 615.900, 421.661 625.600, 419.228 635.300, 416.796 644.999, 414.364 656.643, 411.444 657.621, 401.492 658.600, 391.540 659.578, 381.588 660.557, 371.636 661.535, 361.684 662.514, 351.732 663.492, 341.780 664.471, 331.828 665.449, 321.876 666.428, 311.924 667.406, 301.972 668.385, 292.020 669.363, 282.068 670.342, 272.116 671.320, 262.164 672.299, 252.212 673.277, 242.260 674.256, 232.308 675.234, 222.356 676.213, 212.404 677.191, 202.452 678.170, 192.500 679.148, 182.548 680.127, 172.596 681.105, 162.644 682.084, 152.692 683.062, 142.740 683.863, 134.593 675.438, 129.207 667.013, 123.820 658.588, 118.433 650.163, 113.046 641.737, 107.660 633.312, 102.273 624.887, 96.886 616.462, 91.499 608.037, 86.112 599.612, 80.726 591.187, 75.339 582.762, 69.952 574.337, 64.565 565.911, 59.179 557.486, 53.792 549.061, 48.405 542.141, 43.980 532.208, 45.136 522.275, 46.291 512.342, 47.446 502.409, 48.602 492.476, 49.757 482.543, 50.912 472.610, 52.067 462.677, 53.223 452.744, 54.378 442.810, 55.533 432.877, 56.688 422.944, 57.844 413.011, 58.999 403.078, 60.154 393.145, 61.309 383.212, 62.465 373.279, 63.620 363.346, 64.775 353.413, 65.931 343.480, 67.086 333.547, 68.241 323.614, 69.396 313.681, 70.552 303.748, 71.707 293.815, 72.862 283.882, 74.017 275.487, 74.994 276.441, 84.948 277.395, 94.903 278.349, 104.857 279.303, 114.811 280.258, 124.766 281.212, 134.720 282.166, 144.674 283.120, 154.629 284.074, 164.583 285.028, 174.538 285.982, 184.492 286.936, 194.446 287.890, 204.401 288.844, 214.355 289.798, 224.309 290.753, 234.264 291.707, 244.218 292.661, 254.173 293.615, 264.127 294.569, 274.081 295.523, 284.036 296.477, 293.990 297.431, 303.945 298.385, 313.899 299.471, 325.231 303.727, 334.280 307.982, 343.330 312.237, 352.379 316.492, 361.429 320.748, 370.478 325.003, 379.527 329.258, 388.577 333.514, 397.626 337.769, 406.676 342.024, 415.725 346.279, 424.775 350.535, 433.824 354.790, 442.874 359.045, 451.923 363.300, 460.973 367.556, 470.022 371.811, 479.072 373.408, 482.468 " fill="none" stroke="rgb(0, 0, 0)" stroke-linecap="butt" stroke-linejoin="round" stroke-opacity="1.0" stroke-width="3.0" />
            <path d=" M 275.487, 74.994 281.335, 83.106 287.182, 91.218 293.030, 99.330 298.878, 107.442 304.725, 115.554 310.573, 123.666 316.421, 131.778 322.268, 139.890 328.116, 148.002 333.964, 156.114 339.811, 164.226 345.659, 172.338 351.507, 180.450 355.066, 185.389 " fill="none" stroke="rgb(0, 0, 0)" stroke-linecap="butt" stroke-linejoin="round" stroke-opacity="1.0" stroke-width="3.0" />
            <path d=" M 373.408, 482.468 372.792, 472.487 372.176, 462.506 371.559, 452.525 370.943, 442.544 370.327, 432.563 369.711, 422.582 369.095, 412.601 368.478, 402.620 367.862, 392.639 367.246, 382.658 366.630, 372.677 366.013, 362.696 365.397, 352.715 364.781, 342.734 364.165, 332.753 363.548, 322.772 362.932, 312.791 362.316, 302.810 361.700, 292.829 361.084, 282.848 360.467, 272.867 359.851, 262.886 359.235, 252.905 358.619, 242.924 358.003, 232.943 357.386, 222.962 356.770, 212.981 356.154, 203.000 355.538, 193.019 355.066, 185.389 364.949, 183.862 374.832, 182.335 384.715, 180.808 394.598, 179.282 404.480, 177.755 414.363, 176.228 424.246, 174.701 434.129, 173.175 444.011, 171.648 453.894, 170.121 463.777, 168.594 473.660, 167.067 483.542, 165.541 493.425, 164.014 503.308, 162.487 513.191, 160.960 523.073, 159.434 532.956, 157.907 542.839, 156.380 552.722, 154.853 562.604, 153.327 572.487, 151.800 582.370, 150.273 592.253, 148.746 602.135, 147.219 612.018, 145.693 621.901, 144.166 631.784, 142.639 641.667, 141.112 651.549, 139.586 661.432, 138.059 671.315, 136.532 683.863, 134.593 " fill="none" stroke="rgb(0, 0, 0)" stroke-linecap="butt" stroke-linejoin="round" stroke-opacity="1.0" stroke-width="3.0" />
        </g>
    </g>
</svg>
