<?xml version='1.0' encoding='ascii'?>
<svg xmlns="http://www.w3.org/2000/svg" height="540" version="1.1" width="960">
    <g id="RenderLayer_LineSet" inkscape:groupmode="lineset" inkscape:label="RenderLayer_LineSet" xmlns:inkscape="http://www.inkscape.org/namespaces/inkscape">
        <g id="strokes" inkscape:groupmode="layer" inkscape:label="strokes" xmlns:inkscape="http://www.inkscape.org/namespaces/inkscape">
            <path d=" M 368.948, 482.641 378.649, 480.212 388.349, 477.782 398.050, 475.352 407.750, 472.923 417.450, 470.493 427.151, 468.064 436.851, 465.634 446.551, 463.205 456.252, 460.775 465.952, 458.346 475.653, 455.916 485.353, 453.487 495.053, 451.057 504.754, 448.628 514.454, 446.198 524.154, 443.769 533.855, 441.339 543.555, 438.909 553.256, 436.480 562.956, 434.050 572.656, 431.621 582.357, 429.191 592.057, 426.762 601.758, 424.332 611.458, 421.903 621.158, 419.473 630.859, 417.044 640.559, 414.614 650.259, 412.185 659.960, 409.755 664.777, 408.549 665.799, 398.601 666.820, 388.653 667.842, 378.705 668.863, 368.758 669.885, 358.810 670.906, 348.862 671.928, 338.915 672.949, 328.967 673.970, 319.019 674.992, 309.072 676.013, 299.124 677.035, 289.176 678.056, 279.228 679.078, 269.281 680.099, 259.333 681.121, 249.385 682.142, 239.438 683.164, 229.490 684.185, 219.542 685.207, 209.595 686.228, 199.647 687.250, 189.699 688.271, 179.752 689.292, 169.804 690.314, 159.856 691.335, 149.908 692.357, 139.961 693.378, 130.013 694.673, 117.408 686.114, 112.236 677.556, 107.063 668.998, 101.891 660.439, 96.718 651.881, 91.546 643.323, 86.373 634.764, 81.201 626.206, 76.028 617.647, 70.856 609.089, 65.683 600.531, 60.511 591.972, 55.338 583.414, 50.166 574.856, 44.993 566.297, 39.821 557.739, 34.648 549.181, 29.476 545.064, 26.988 535.124, 28.087 525.185, 29.187 515.246, 30.287 505.306, 31.387 495.367, 32.487 485.428, 33.586 475.488, 34.686 465.549, 35.786 455.610, 36.886 445.670, 37.985 435.731, 39.085 425.792, 40.185 415.852, 41.285 405.913, 42.384 395.974, 43.484 386.034, 44.584 376.095, 45.684 366.156, 46.784 356.216, 47.883 346.277, 48.983 336.338, 50.083 326.398, 51.183 316.459, 52.282 306.520, 53.382 296.580, 54.482 286.641, 55.582 276.702, 56.681 267.282, 57.724 268.266, 67.675 269.250, 77.627 270.235, 87.578 271.219, 97.530 272.203, 107.481 273.187, 117.432 274.171, 127.384 275.155, 137.335 276.139, 147.287 277.123, 157.238 278.108, 167.190 279.092, 177.141 280.076, 187.093 281.060, 197.044 282.044, 206.996 283.028, 216.947 284.012, 226.898 284.996, 236.850 285.980, 246.801 286.965, 256.753 287.949, 266.704 288.933, 276.656 289.917, 286.607 290.901, 296.559 291.885, 306.510 292.869, 316.462 293.166, 319.462 297.378, 328.531 301.590, 337.601 305.802, 346.671 310.014, 355.740 314.226, 364.810 318.438, 373.880 322.650, 382.949 326.862, 392.019 331.074, 401.088 335.286, 410.158 339.499, 419.228 343.711, 428.297 347.923, 437.367 352.135, 446.437 356.347, 455.506 360.559, 464.576 364.771, 473.646 368.948, 482.641 " fill="none" stroke="rgb(0, 0, 0)" stroke-linecap="butt" stroke-linejoin="round" stroke-opacity="1.0" stroke-width="3.0" />
            <path d=" M 267.282, 57.724 273.193, 65.790 279.104, 73.856 285.014, 81.922 290.925, 89.989 296.836, 98.055 302.746, 106.121 308.657, 114.187 314.568, 122.254 320.478, 130.320 326.389, 138.386 332.299, 146.452 338.210, 154.518 344.121, 162.585 348.767, 168.926 " fill="none" stroke="rgb(0, 0, 0)" stroke-linecap="butt" stroke-linejoin="round" stroke-opacity="1.0" stroke-width="3.0" />
            <path d=" M 368.948, 482.641 368.306, 472.662 367.664, 462.682 367.023, 452.703 366.381, 442.724 365.739, 432.744 365.097, 422.765 364.455, 412.785 363.813, 402.806 363.171, 392.827 362.529, 382.847 361.887, 372.868 361.245, 362.889 360.603, 352.909 359.961, 342.930 359.319, 332.950 358.677, 322.971 358.035, 312.992 357.393, 303.012 356.751, 293.033 356.109, 283.054 355.467, 273.074 354.825, 263.095 354.183, 253.115 353.541, 243.136 352.899, 233.157 352.257, 223.177 351.615, 213.198 350.973, 203.219 350.331, 193.239 349.689, 183.260 349.047, 173.281 348.767, 168.926 358.658, 167.452 368.549, 165.979 378.440, 164.506 388.331, 163.033 398.222, 161.560 408.113, 160.087 418.003, 158.614 427.894, 157.141 437.785, 155.668 447.676, 154.194 457.567, 152.721 467.458, 151.248 477.349, 149.775 487.240, 148.302 497.131, 146.829 507.022, 145.356 516.912, 143.883 526.803, 142.410 536.694, 140.937 546.585, 139.463 556.476, 137.990 566.367, 136.517 576.258, 135.044 586.149, 133.571 596.040, 132.098 605.931, 130.625 615.821, 129.152 625.712, 127.679 635.603, 126.206 645.494, 124.732 655.385, 123.259 665.276, 121.786 675.167, 120.313 685.058, 118.840 694.673, 117.408 " fill="none" stroke="rgb(0, 0, 0)" stroke-linecap="butt" stroke-linejoin="round" stroke-opacity="1.0" stroke-width="3.0" />
        </g>
    </g>
</svg>
