<?xml version='1.0' encoding='ascii'?>
<svg xmlns="http://www.w3.org/2000/svg" height="540" version="1.1" width="960">
    <g id="RenderLayer_LineSet" inkscape:groupmode="lineset" inkscape:label="RenderLayer_LineSet" xmlns:inkscape="http://www.inkscape.org/namespaces/inkscape">
        <g id="strokes" inkscape:groupmode="layer" inkscape:label="strokes" xmlns:inkscape="http://www.inkscape.org/namespaces/inkscape">
            <path d=" M 367.443, 482.699 377.144, 480.271 386.844, 477.842 396.545, 475.414 406.245, 472.985 415.946, 470.556 425.647, 468.128 435.347, 465.699 445.048, 463.271 454.749, 460.842 464.449, 458.413 474.150, 455.985 483.850, 453.556 493.551, 451.128 503.252, 448.699 512.952, 446.270 522.653, 443.842 532.353, 441.413 542.054, 438.985 551.755, 436.556 561.455, 434.127 571.156, 431.699 580.857, 429.270 590.557, 426.842 600.258, 424.413 609.958, 421.984 619.659, 419.556 629.360, 417.127 639.060, 414.699 648.761, 412.270 658.461, 409.841 667.508, 407.577 668.543, 397.630 669.579, 387.684 670.615, 377.738 671.651, 367.792 672.687, 357.846 673.723, 347.899 674.758, 337.953 675.794, 328.007 676.830, 318.061 677.866, 308.115 678.902, 298.168 679.938, 288.222 680.974, 278.276 682.009, 268.330 683.045, 258.384 684.081, 248.437 685.117, 238.491 686.153, 228.545 687.189, 218.599 688.224, 208.652 689.260, 198.706 690.296, 188.760 691.332, 178.814 692.368, 168.868 693.404, 158.921 694.439, 148.975 695.475, 139.029 696.511, 129.083 697.547, 119.137 698.333, 111.588 689.731, 106.489 681.129, 101.390 672.526, 96.291 663.924, 91.192 655.322, 86.092 646.720, 80.993 638.118, 75.894 629.515, 70.795 620.913, 65.696 612.311, 60.596 603.709, 55.497 595.106, 50.398 586.504, 45.299 577.902, 40.200 569.300, 35.100 560.698, 30.001 552.095, 24.902 546.040, 21.313 536.099, 22.394 526.157, 23.475 516.216, 24.556 506.274, 25.637 496.333, 26.719 486.392, 27.800 476.450, 28.881 466.509, 29.962 456.568, 31.043 446.626, 32.125 436.685, 33.206 426.743, 34.287 416.802, 35.368 406.861, 36.449 396.919, 37.530 386.978, 38.612 377.036, 39.693 367.095, 40.774 357.154, 41.855 347.212, 42.936 337.271, 44.018 327.330, 45.099 317.388, 46.180 307.447, 47.261 297.505, 48.342 287.564, 49.424 277.623, 50.505 267.681, 51.586 264.529, 51.929 265.523, 61.879 266.517, 71.830 267.511, 81.780 268.505, 91.731 269.499, 101.681 270.494, 111.632 271.488, 121.582 272.482, 131.533 273.476, 141.483 274.470, 151.433 275.464, 161.384 276.458, 171.334 277.452, 181.285 278.446, 191.235 279.440, 201.186 280.434, 211.136 281.428, 221.087 282.423, 231.037 283.417, 240.988 284.411, 250.938 285.405, 260.889 286.399, 270.839 287.393, 280.790 288.387, 290.740 289.381, 300.690 290.375, 310.641 291.064, 317.539 295.262, 326.615 299.459, 335.692 303.656, 344.768 307.854, 353.844 312.051, 362.921 316.249, 371.997 320.446, 381.074 324.643, 390.150 328.841, 399.227 333.038, 408.303 337.236, 417.380 341.433, 426.456 345.631, 435.532 349.828, 444.609 354.025, 453.685 358.223, 462.762 362.420, 471.838 366.618, 480.915 367.443, 482.699 " fill="none" stroke="rgb(0, 0, 0)" stroke-linecap="butt" stroke-linejoin="round" stroke-opacity="1.0" stroke-width="3.0" />
            <path d=" M 264.529, 51.929 270.462, 59.979 276.395, 68.028 282.328, 76.078 288.261, 84.128 294.194, 92.178 300.127, 100.228 306.060, 108.278 311.993, 116.328 317.926, 124.378 323.858, 132.427 329.791, 140.477 335.724, 148.527 341.657, 156.577 346.617, 163.307 " fill="none" stroke="rgb(0, 0, 0)" stroke-linecap="butt" stroke-linejoin="round" stroke-opacity="1.0" stroke-width="3.0" />
            <path d=" M 367.443, 482.699 366.792, 472.721 366.142, 462.742 365.491, 452.763 364.840, 442.784 364.190, 432.805 363.539, 422.827 362.888, 412.848 362.238, 402.869 361.587, 392.890 360.936, 382.911 360.286, 372.932 359.635, 362.954 358.984, 352.975 358.334, 342.996 357.683, 333.017 357.032, 323.038 356.382, 313.060 355.731, 303.081 355.080, 293.102 354.430, 283.123 353.779, 273.144 353.128, 263.166 352.478, 253.187 351.827, 243.208 351.176, 233.229 350.526, 223.250 349.875, 213.272 349.224, 203.293 348.574, 193.314 347.923, 183.335 347.272, 173.356 346.617, 163.307 356.511, 161.852 366.404, 160.397 376.298, 158.942 386.192, 157.487 396.085, 156.033 405.979, 154.578 415.872, 153.123 425.766, 151.668 435.660, 150.213 445.553, 148.758 455.447, 147.304 465.340, 145.849 475.234, 144.394 485.128, 142.939 495.021, 141.484 504.915, 140.030 514.808, 138.575 524.702, 137.120 534.596, 135.665 544.489, 134.210 554.383, 132.756 564.277, 131.301 574.170, 129.846 584.064, 128.391 593.957, 126.936 603.851, 125.482 613.745, 124.027 623.638, 122.572 633.532, 121.117 643.425, 119.662 653.319, 118.208 663.213, 116.753 673.106, 115.298 683.000, 113.843 692.893, 112.388 698.333, 111.588 " fill="none" stroke="rgb(0, 0, 0)" stroke-linecap="butt" stroke-linejoin="round" stroke-opacity="1.0" stroke-width="3.0" />
        </g>
    </g>
</svg>
